<?xml version="1.0" encoding="utf-8"?>
<!-- Generator: Adobe Illustrator 26.2.1, SVG Export Plug-In . SVG Version: 6.00 Build 0)  -->
<svg version="1.1" id="Capa_1" xmlns="http://www.w3.org/2000/svg" xmlns:xlink="http://www.w3.org/1999/xlink" x="0px" y="0px"
	 viewBox="0 0 352 94" style="enable-background:new 0 0 352 94;" xml:space="preserve">
<style type="text/css">
	.st0{fill:#173058;}
	.st1{fill:#ADC832;}
</style>
<path class="st0" d="M352-0.2H11.8C5.3-0.2,0,5.1,0,11.6v82.5h352V-0.2z"/>
<g>
	<path class="st1" d="M53.9,39.6C53,40.2,51,40.7,49,40.7c-4.3,0-7.6-2.7-7.6-8c0-4.9,3.1-8.5,8.2-8.5c1.7,0,3.3,0.3,4.2,0.7
		l-0.7,2.7c-1-0.4-2.4-0.7-4.1-0.7c-2.2,0-4.2,1.2-4.2,5.3c0,4.4,2.7,5.7,5,5.7c1.4,0,2.9-0.4,3.7-0.7L53.9,39.6z"/>
	<path class="st1" d="M60.3,40.7c-3.2,0-5.5-2-5.5-5.9s2.5-6.4,6.3-6.4c3.4,0,5.5,2,5.5,5.9S64,40.7,60.3,40.7z M60.4,30.6
		c-1.4,0-2.3,0.8-2.3,3.6c0,3.3,1.2,4.2,2.9,4.2c1.4,0,2.3-0.8,2.3-3.6C63.3,31.5,62,30.6,60.4,30.6z"/>
	<path class="st1" d="M71.9,31.4v8.9h-3.2V28.8l2.3-0.5l0.6,1.2c1.1-0.6,2.5-1.2,3.8-1.2s2.3,0.4,2.9,1.3c1.1-0.6,2.6-1.3,4-1.3
		c2.1,0,3.5,1.2,3.5,3.5v8.4h-3.2v-7.4c0-1.6-0.8-2.1-1.8-2.1c-0.6,0-1.4,0.3-2,0.5c0,0.2,0,0.3,0,0.5v8.4h-3.2v-7.4
		c0-1.6-0.8-2.1-1.8-2.1C73.3,30.8,72.5,31.1,71.9,31.4z"/>
	<path class="st1" d="M88.7,46.2V28.8l2.3-0.5l0.6,1.3c0.9-0.5,2.4-1.3,3.7-1.3c2.4,0,4.7,1.7,4.7,5.9c0,4.4-3.1,6.4-5.7,6.4
		c-0.9,0-1.7-0.1-2.4-0.2v5.2L88.7,46.2z M96.8,34.5c0-2.9-1.5-3.7-2.8-3.7c-0.7,0-1.4,0.2-2,0.5v6.7c0.6,0.2,1.4,0.4,2.3,0.4
		C95.7,38.3,96.8,37.2,96.8,34.5z"/>
	<path class="st1" d="M107.1,40.7c-3,0-5.6-1.7-5.6-5.9c0-4.1,2.3-6.5,5.7-6.5c3.4,0,4.5,2.3,4.5,4.8c0,0.5-0.1,1.3-0.1,1.6h-6.9
		c0.2,2.6,1.7,3.4,3.2,3.4c1.2,0,2.5-0.3,3.4-0.7l0.5,2.1C110.5,40.2,108.9,40.7,107.1,40.7z M104.7,32.9h4c0-1.7-0.7-2.5-2-2.5
		C105.5,30.4,104.9,31,104.7,32.9z"/>
	<path class="st1" d="M117.9,40.7c-1.8,0-3.6-1-3.5-3.4l0.1-6.4h-1.7v-2l1.7-0.3l0-2.1l3.2-0.5l0,2.5h3.6L121,31h-3.4l-0.1,5.2
		c0,1.4,0.5,2,1.6,2c0.9,0,1.4-0.2,1.8-0.3l0.2,2.1C120.6,40.2,119.2,40.7,117.9,40.7z"/>
	<path class="st1" d="M127.9,40.7c-3,0-5.6-1.7-5.6-5.9c0-4.1,2.3-6.5,5.7-6.5c3.4,0,4.5,2.3,4.5,4.8c0,0.5-0.1,1.3-0.1,1.6h-6.9
		c0.2,2.6,1.7,3.4,3.2,3.4c1.2,0,2.5-0.3,3.4-0.7l0.5,2.1C131.4,40.2,129.8,40.7,127.9,40.7z M125.6,32.9h4c0-1.7-0.7-2.5-2-2.5
		C126.4,30.4,125.7,31,125.6,32.9z"/>
	<path class="st1" d="M138,31.4v8.9h-3.2V28.8l2.3-0.5l0.6,1.2c1.1-0.6,2.5-1.2,3.8-1.2c2.1,0,3.7,1.2,3.7,3.5v8.4H142v-7.4
		c0-1.6-0.9-2.1-1.9-2.1C139.4,30.8,138.6,31.1,138,31.4z"/>
	<path class="st1" d="M156.8,39.9c-1.1,0.5-2.5,0.8-3.9,0.8c-3.1,0-5.7-1.9-5.7-5.8c0-4.3,2.8-6.5,6.1-6.5c1.6,0,2.7,0.3,3.3,0.6
		l-0.6,2.5c-0.6-0.3-2-0.6-2.7-0.6c-1.8,0-2.9,1-2.9,3.6c0,2.7,1.6,3.8,3.2,3.8c1,0,1.9-0.2,2.6-0.5L156.8,39.9z"/>
	<path class="st1" d="M160.3,22.9c0.6,0,2.1,1,2.1,1.7c0,0.7-1.3,2-1.9,2c-0.7,0-2.1-1-2.1-1.7C158.4,24.2,159.6,22.9,160.3,22.9z
		 M162,28.3v12h-3.2V28.8L162,28.3z"/>
	<path class="st1" d="M171,39.5c-1,0.6-2.2,1.2-3.3,1.2c-2,0-3.5-1.3-3.5-3.3c0-2.3,1.8-3.8,6.5-4v-0.5c0-1.4-0.7-2-1.9-2
		c-1.1,0-2.5,0.4-3.5,0.8l-0.6-2.2c1.7-0.6,3.3-1.1,5.1-1.1c2.6,0,4.1,1.3,4.1,3.9v8l-2.2,0.5L171,39.5z M170.6,37.9v-2.4
		c-0.4-0.1-1-0.1-1.4-0.1c-1.4,0-2.2,0.5-2.2,1.5c0,0.9,0.7,1.5,1.7,1.5C169.3,38.4,170,38.2,170.6,37.9z"/>
	<path class="st1" d="M175.8,40l0.6-2.5c1.3,0.5,2.6,0.9,4.1,0.9c0.9,0,1.4-0.4,1.4-1c0-0.6-0.3-1.1-1.4-1.5l-1.8-0.6
		c-1.6-0.6-2.6-1.5-2.6-3.2c0-2.2,2.2-3.7,4.6-3.7c1.9,0,3.2,0.3,3.9,0.5l-0.5,2.5c-1.2-0.4-2.5-0.7-3.6-0.7c-1,0-1.5,0.4-1.5,1
		c0,0.6,0.3,1,1.4,1.4l1.7,0.6c1.9,0.6,2.7,1.8,2.7,3.3c0,2.7-2.9,3.9-4.9,3.9C178.1,40.7,176.7,40.3,175.8,40z"/>
	<path class="st1" d="M200.2,39.5c-0.9,0.5-2.4,1.3-3.6,1.2c-2.4,0-4.7-1.7-4.7-5.9c0-4.4,3.1-6.4,5.7-6.4c0.9,0,1.7,0.1,2.4,0.2V23
		l3.2-0.5v17.7l-2.3,0.5L200.2,39.5z M200,37.8v-6.7c-0.6-0.2-1.4-0.4-2.3-0.4c-1.5,0-2.5,1.1-2.5,3.8c0,2.9,1.5,3.7,2.8,3.7
		C198.7,38.3,199.4,38.1,200,37.8z"/>
	<path class="st1" d="M207.7,22.9c0.6,0,2.1,1,2.1,1.7c0,0.7-1.3,2-1.9,2c-0.7,0-2.1-1-2.1-1.7C205.8,24.2,207,22.9,207.7,22.9z
		 M209.3,28.3v12h-3.2V28.8L209.3,28.3z"/>
	<path class="st1" d="M215.5,45.9c-3.1,0-4.6-1.3-4.6-2.9c0-1.2,0.9-2,1.6-2.5c0.2-0.1,0.6-0.4,1-0.7c-0.9-0.4-1.3-1.1-1.3-1.8
		c0-0.8,0.7-1.6,1.4-2.2c-1.4-0.6-2.4-1.7-2.4-3.4c0-2.5,2-4.2,5.2-4.2c1.1,0,2,0.3,2.7,0.7c0.9-0.2,3.2-0.7,3.2-0.7V31h-0.5
		l-1.3-0.2c0.2,0.4,0.2,0.9,0.2,1.4c0,2.6-2.1,4.2-5.1,4.2c-0.1,0-0.2,0-0.3,0c-0.2,0.2-0.4,0.5-0.4,0.8c0,0.4,0.4,0.7,1.4,0.8
		l2.5,0.2c1.9,0.2,3.1,0.8,3.1,2.8C222.2,43.6,219.3,45.9,215.5,45.9z M219.3,41.8c0-0.6-0.5-1-1.7-1.2l-2.1-0.3
		c-0.2,0.1-0.4,0.3-0.5,0.4c-0.6,0.5-1,1-1,1.5c0,0.8,0.8,1.4,2.5,1.4C218.1,43.7,219.3,42.8,219.3,41.8z M215.9,30.2
		c-1,0-1.5,0.5-1.5,2c0,1.6,1,2.2,2,2.2c0.9,0,1.5-0.5,1.5-2C218,30.8,217,30.2,215.9,30.2z"/>
	<path class="st1" d="M225.7,22.9c0.6,0,2.1,1,2.1,1.7c0,0.7-1.3,2-1.9,2c-0.7,0-2.1-1-2.1-1.7C223.8,24.2,225,22.9,225.7,22.9z
		 M227.4,28.3v12h-3.2V28.8L227.4,28.3z"/>
	<path class="st1" d="M234.2,40.7c-1.8,0-3.6-1-3.5-3.4l0.1-6.4H229v-2l1.7-0.3l0-2.1l3.2-0.5l0,2.5h3.6l-0.3,2.2h-3.4l-0.1,5.2
		c0,1.4,0.5,2,1.6,2c0.9,0,1.4-0.2,1.8-0.3l0.2,2.1C236.9,40.2,235.5,40.7,234.2,40.7z"/>
	<path class="st1" d="M245.5,39.5c-1,0.6-2.2,1.2-3.3,1.2c-2,0-3.5-1.3-3.5-3.3c0-2.3,1.8-3.8,6.5-4v-0.5c0-1.4-0.7-2-1.9-2
		c-1.1,0-2.5,0.4-3.5,0.8l-0.6-2.2c1.7-0.6,3.3-1.1,5.1-1.1c2.6,0,4.1,1.3,4.1,3.9v8l-2.2,0.5L245.5,39.5z M245.1,37.9v-2.4
		c-0.4-0.1-1-0.1-1.4-0.1c-1.4,0-2.2,0.5-2.2,1.5c0,0.9,0.7,1.5,1.7,1.5C243.8,38.4,244.5,38.2,245.1,37.9z"/>
	<path class="st1" d="M256.3,40.2c-0.5,0.2-1.7,0.4-2.5,0.4c-1.7,0-2.9-0.8-2.9-2.8V22.9l3.2-0.4v14.7c0,0.7,0.4,0.9,0.9,0.9
		c0.3,0,0.7-0.1,0.9-0.2L256.3,40.2z"/>
	<path class="st1" d="M262.8,40.7c-3,0-5.6-1.7-5.6-5.9c0-4.1,2.3-6.5,5.7-6.5s4.5,2.3,4.5,4.8c0,0.5-0.1,1.3-0.1,1.6h-6.9
		c0.2,2.6,1.7,3.4,3.2,3.4c1.2,0,2.5-0.3,3.4-0.7l0.5,2.1C266.2,40.2,264.6,40.7,262.8,40.7z M260.4,32.9h4c0-1.7-0.7-2.5-2-2.5
		C261.2,30.4,260.6,31,260.4,32.9z"/>
	<path class="st1" d="M268.9,40l0.6-2.5c1.3,0.5,2.6,0.9,4.1,0.9c0.9,0,1.4-0.4,1.4-1c0-0.6-0.3-1.1-1.4-1.5l-1.8-0.6
		c-1.6-0.6-2.6-1.5-2.6-3.2c0-2.2,2.2-3.7,4.6-3.7c1.9,0,3.2,0.3,3.9,0.5l-0.5,2.5c-1.2-0.4-2.5-0.7-3.6-0.7c-1,0-1.5,0.4-1.5,1
		c0,0.6,0.3,1,1.4,1.4l1.7,0.6c1.9,0.6,2.7,1.8,2.7,3.3c0,2.7-2.9,3.9-4.9,3.9C271.2,40.7,269.8,40.3,268.9,40z"/>
	<path class="st1" d="M49.5,70.3c-0.9,0.5-2.4,1.3-3.6,1.2c-2.4,0-4.7-1.7-4.7-5.9c0-4.4,3.1-6.4,5.7-6.4c0.9,0,1.7,0.1,2.4,0.2
		v-5.6l3.2-0.5V71l-2.3,0.5L49.5,70.3z M49.2,68.6v-6.7c-0.6-0.2-1.4-0.4-2.3-0.4c-1.5,0-2.5,1.1-2.5,3.8c0,2.9,1.5,3.7,2.8,3.7
		C47.9,69.1,48.6,68.9,49.2,68.6z"/>
	<path class="st1" d="M60.2,71.5c-3,0-5.6-1.7-5.6-5.9c0-4.1,2.3-6.5,5.7-6.5c3.4,0,4.5,2.3,4.5,4.8c0,0.5-0.1,1.3-0.1,1.6h-6.9
		c0.2,2.6,1.7,3.4,3.2,3.4c1.2,0,2.5-0.3,3.4-0.7l0.5,2.1C63.6,71.1,62,71.5,60.2,71.5z M57.8,63.7h4c0-1.7-0.7-2.5-2-2.5
		C58.7,61.2,58,61.8,57.8,63.7z"/>
	<path class="st1" d="M72.2,71.1c-0.5,0.2-1.7,0.4-2.5,0.4c-1.7,0-2.9-0.8-2.9-2.8V53.8l3.2-0.4V68c0,0.7,0.4,0.9,0.9,0.9
		c0.3,0,0.7-0.1,0.9-0.2L72.2,71.1z"/>
	<path class="st1" d="M84.3,71.5c-3,0-5.6-1.7-5.6-5.9c0-4.1,2.3-6.5,5.7-6.5c3.4,0,4.5,2.3,4.5,4.8c0,0.5-0.1,1.3-0.1,1.6h-6.9
		c0.2,2.6,1.7,3.4,3.2,3.4c1.2,0,2.5-0.3,3.4-0.7l0.5,2.1C87.8,71.1,86.2,71.5,84.3,71.5z M82,63.7h4c0-1.7-0.7-2.5-2-2.5
		C82.8,61.2,82.2,61.8,82,63.7z"/>
	<path class="st1" d="M90.4,70.8l0.6-2.5c1.3,0.5,2.6,0.9,4.1,0.9c0.9,0,1.4-0.4,1.4-1c0-0.6-0.3-1.1-1.4-1.5L93.3,66
		c-1.6-0.6-2.6-1.5-2.6-3.2c0-2.2,2.2-3.7,4.6-3.7c1.9,0,3.2,0.3,3.9,0.5l-0.5,2.5c-1.2-0.4-2.5-0.7-3.6-0.7c-1,0-1.5,0.4-1.5,1
		c0,0.6,0.3,1,1.4,1.4l1.7,0.6c1.9,0.6,2.7,1.8,2.7,3.3c0,2.7-2.9,3.9-4.9,3.9C92.7,71.5,91.3,71.1,90.4,70.8z"/>
	<path class="st1" d="M105.6,71.5c-1.8,0-3.6-1-3.5-3.4l0.1-6.4h-1.7v-2l1.7-0.3l0-2.1l3.2-0.5l0,2.5h3.6l-0.3,2.2h-3.4l-0.1,5.2
		c0,1.4,0.5,2,1.6,2c0.9,0,1.4-0.2,1.8-0.3l0.2,2.1C108.3,71,106.9,71.5,105.6,71.5z"/>
	<path class="st1" d="M118.2,70.4c-1.1,0.5-2.5,1.1-3.8,1.1c-2.1,0-3.7-1.2-3.7-3.5v-8.4l3.2-0.5V67c0,1.6,0.9,2.1,1.9,2.1
		c0.6,0,1.5-0.3,2-0.6v-8.9l3.2-0.5V71l-2.2,0.5L118.2,70.4z"/>
	<path class="st1" d="M131.6,70.3c-0.9,0.5-2.4,1.3-3.6,1.2c-2.4,0-4.7-1.7-4.7-5.9c0-4.4,3.1-6.4,5.7-6.4c0.9,0,1.7,0.1,2.4,0.2
		v-5.6l3.2-0.5V71l-2.3,0.5L131.6,70.3z M131.4,68.6v-6.7c-0.6-0.2-1.4-0.4-2.3-0.4c-1.5,0-2.5,1.1-2.5,3.8c0,2.9,1.5,3.7,2.8,3.7
		C130,69.1,130.7,68.9,131.4,68.6z"/>
	<path class="st1" d="M139,53.8c0.6,0,2.1,1,2.1,1.7c0,0.7-1.3,2-1.9,2c-0.7,0-2.1-1-2.1-1.7S138.3,53.8,139,53.8z M140.7,59.1v12
		h-3.2V59.6L140.7,59.1z"/>
	<path class="st1" d="M149.6,70.3c-1,0.6-2.2,1.2-3.3,1.2c-2,0-3.5-1.3-3.5-3.3c0-2.3,1.8-3.8,6.5-4v-0.5c0-1.4-0.7-2-1.9-2
		c-1.1,0-2.5,0.4-3.5,0.8l-0.6-2.2c1.7-0.6,3.3-1.1,5.1-1.1c2.6,0,4.1,1.3,4.1,3.9v8l-2.2,0.5L149.6,70.3z M149.3,68.7v-2.4
		c-0.4-0.1-1-0.1-1.4-0.1c-1.4,0-2.2,0.5-2.2,1.5c0,0.9,0.7,1.5,1.7,1.5C147.9,69.2,148.7,69,149.3,68.7z"/>
	<path class="st1" d="M158.5,62.2v8.9h-3.2V59.6l2.3-0.5l0.6,1.2c1.1-0.6,2.5-1.2,3.8-1.2c2.1,0,3.7,1.2,3.7,3.5v8.4h-3.2v-7.4
		c0-1.6-0.9-2.1-1.9-2.1C159.9,61.6,159.1,61.9,158.5,62.2z"/>
	<path class="st1" d="M172.4,71.5c-1.8,0-3.6-1-3.5-3.4l0.1-6.4h-1.7v-2l1.7-0.3l0-2.1l3.2-0.5l0,2.5h3.6l-0.3,2.2h-3.4l-0.1,5.2
		c0,1.4,0.5,2,1.6,2c0.9,0,1.4-0.2,1.8-0.3l0.2,2.1C175.1,71,173.7,71.5,172.4,71.5z"/>
	<path class="st1" d="M182.5,71.5c-3,0-5.6-1.7-5.6-5.9c0-4.1,2.3-6.5,5.7-6.5s4.5,2.3,4.5,4.8c0,0.5-0.1,1.3-0.1,1.6H180
		c0.2,2.6,1.7,3.4,3.2,3.4c1.2,0,2.5-0.3,3.4-0.7l0.5,2.1C185.9,71.1,184.3,71.5,182.5,71.5z M180.1,63.7h4c0-1.7-0.7-2.5-2-2.5
		C180.9,61.2,180.3,61.8,180.1,63.7z"/>
	<path class="st1" d="M202.3,70.4c-1.1,0.5-2.5,1.1-3.8,1.1c-2.1,0-3.7-1.2-3.7-3.5v-8.4l3.2-0.5V67c0,1.6,0.9,2.1,1.9,2.1
		c0.6,0,1.5-0.3,2-0.6v-8.9l3.2-0.5V71l-2.2,0.5L202.3,70.4z"/>
	<path class="st1" d="M211.3,62.2v8.9h-3.2V59.6l2.3-0.5l0.6,1.2c1.1-0.6,2.5-1.2,3.8-1.2c2.1,0,3.7,1.2,3.7,3.5v8.4h-3.2v-7.4
		c0-1.6-0.9-2.1-1.9-2.1C212.7,61.6,211.9,61.9,211.3,62.2z"/>
	<path class="st1" d="M222.9,53.8c0.6,0,2.1,1,2.1,1.7c0,0.7-1.3,2-1.9,2c-0.7,0-2.1-1-2.1-1.7S222.2,53.8,222.9,53.8z M224.5,59.1
		v12h-3.2V59.6L224.5,59.1z"/>
	<path class="st1" d="M229.8,71.1l-3.7-11.4l3.4-0.5l2.7,9.1l2.6-8.9h3.2L234,71.1H229.8z"/>
	<path class="st1" d="M244.3,71.5c-3,0-5.6-1.7-5.6-5.9c0-4.1,2.3-6.5,5.7-6.5s4.5,2.3,4.5,4.8c0,0.5-0.1,1.3-0.1,1.6h-6.9
		c0.2,2.6,1.7,3.4,3.2,3.4c1.2,0,2.5-0.3,3.4-0.7l0.5,2.1C247.7,71.1,246.1,71.5,244.3,71.5z M241.9,63.7h4c0-1.7-0.7-2.5-2-2.5
		C242.8,61.2,242.1,61.8,241.9,63.7z"/>
	<path class="st1" d="M254.4,62.5v8.6h-3.2V59.6l2.3-0.5l0.7,1.4c0.7-0.6,2-1.4,3.3-1.4c0.4,0,0.7,0.1,0.8,0.1l-0.4,2.9
		c-0.2-0.1-0.8-0.1-1.1-0.1C256.1,62,255.1,62.2,254.4,62.5z"/>
	<path class="st1" d="M259,70.8l0.6-2.5c1.3,0.5,2.6,0.9,4.1,0.9c0.9,0,1.4-0.4,1.4-1c0-0.6-0.3-1.1-1.4-1.5l-1.8-0.6
		c-1.6-0.6-2.6-1.5-2.6-3.2c0-2.2,2.2-3.7,4.6-3.7c1.9,0,3.2,0.3,3.9,0.5l-0.5,2.5c-1.2-0.4-2.5-0.7-3.6-0.7c-1,0-1.5,0.4-1.5,1
		c0,0.6,0.3,1,1.4,1.4l1.7,0.6c1.9,0.6,2.7,1.8,2.7,3.3c0,2.7-2.9,3.9-4.9,3.9C261.3,71.5,259.9,71.1,259,70.8z"/>
	<path class="st1" d="M271.8,53.8c0.6,0,2.1,1,2.1,1.7c0,0.7-1.3,2-1.9,2c-0.7,0-2.1-1-2.1-1.7S271.1,53.8,271.8,53.8z M273.5,59.1
		v12h-3.2V59.6L273.5,59.1z"/>
	<path class="st1" d="M280.3,71.5c-1.8,0-3.6-1-3.5-3.4l0.1-6.4h-1.7v-2l1.7-0.3l0-2.1l3.2-0.5l0,2.5h3.6l-0.3,2.2H280l-0.1,5.2
		c0,1.4,0.5,2,1.6,2c0.9,0,1.4-0.2,1.8-0.3l0.2,2.1C283,71,281.6,71.5,280.3,71.5z"/>
	<path class="st1" d="M291.5,70.3c-1,0.6-2.2,1.2-3.3,1.2c-2,0-3.5-1.3-3.5-3.3c0-2.3,1.8-3.8,6.5-4v-0.5c0-1.4-0.7-2-1.9-2
		c-1.1,0-2.5,0.4-3.5,0.8l-0.6-2.2c1.7-0.6,3.3-1.1,5.1-1.1c2.6,0,4.1,1.3,4.1,3.9v8l-2.2,0.5L291.5,70.3z M291.2,68.7v-2.4
		c-0.4-0.1-1-0.1-1.4-0.1c-1.4,0-2.2,0.5-2.2,1.5c0,0.9,0.7,1.5,1.7,1.5C289.9,69.2,290.6,69,291.2,68.7z"/>
	<path class="st1" d="M300.4,62.5v8.6h-3.2V59.6l2.3-0.5l0.7,1.4c0.7-0.6,2-1.4,3.3-1.4c0.4,0,0.7,0.1,0.8,0.1l-0.4,2.9
		c-0.2-0.1-0.8-0.1-1.1-0.1C302.1,62,301.1,62.2,300.4,62.5z"/>
	<path class="st1" d="M307.4,53.8c0.6,0,2.1,1,2.1,1.7c0,0.7-1.3,2-1.9,2c-0.7,0-2.1-1-2.1-1.7S306.7,53.8,307.4,53.8z M309.1,59.1
		v12h-3.2V59.6L309.1,59.1z"/>
	<path class="st1" d="M316.7,71.5c-3.2,0-5.5-2-5.5-5.9s2.5-6.4,6.3-6.4c3.4,0,5.5,2,5.5,5.9S320.4,71.5,316.7,71.5z M316.8,61.5
		c-1.4,0-2.3,0.8-2.3,3.6c0,3.3,1.2,4.2,2.9,4.2c1.4,0,2.3-0.8,2.3-3.6C319.7,62.3,318.4,61.5,316.8,61.5z"/>
</g>
</svg>
